<?xml version="1.0" standalone="no"?>
<!DOCTYPE svg PUBLIC "-//W3C//DTD SVG 20010904//EN"
 "http://www.w3.org/TR/2001/REC-SVG-20010904/DTD/svg10.dtd">
<svg version="1.0" xmlns="http://www.w3.org/2000/svg"
 width="852.000000pt" height="179.000000pt" viewBox="0 0 852.000000 179.000000"
 preserveAspectRatio="xMidYMid meet">
<metadata>
Created by potrace 1.16, written by Peter Selinger 2001-2019
</metadata>
<g transform="translate(0.000000,179.000000) scale(0.100000,-0.100000)"
fill="#000000" stroke="none">
<path d="M407 1691 c-186 -26 -300 -128 -327 -292 -32 -201 9 -389 104 -477
22 -21 106 -83 186 -139 214 -149 220 -158 220 -308 0 -77 -3 -97 -19 -116
-16 -20 -23 -22 -38 -13 -25 15 -30 49 -32 197 l-1 127 -212 0 -211 0 6 -137
c10 -214 40 -297 134 -369 90 -69 216 -99 383 -91 207 10 335 76 391 202 19
41 23 73 27 186 5 147 -6 236 -39 326 -33 86 -112 156 -356 314 -112 72 -126
94 -127 199 0 77 14 120 39 120 25 0 35 -37 35 -134 l0 -96 211 0 212 0 -6
128 c-7 150 -18 189 -70 248 -70 80 -182 120 -353 128 -54 3 -125 1 -157 -3z"/>
<path d="M6130 1690 c-158 -25 -266 -102 -326 -234 -34 -74 -44 -205 -44 -576
0 -367 11 -503 43 -574 51 -111 144 -184 278 -217 105 -27 279 -23 372 9 124
42 214 131 252 252 16 48 19 107 23 455 4 436 -3 570 -38 650 -45 105 -130
179 -249 215 -73 23 -230 33 -311 20z m140 -296 c11 -28 14 -960 4 -1012 -7
-34 -23 -45 -45 -31 -12 7 -14 90 -17 498 -3 499 1 571 34 571 8 0 19 -12 24
-26z"/>
<path d="M1080 1510 l0 -160 115 0 115 0 0 -625 0 -625 225 0 225 0 0 625 0
625 110 0 109 0 3 150 3 150 138 -498 137 -497 0 -277 0 -278 210 0 210 0 0
289 0 290 140 486 c77 267 140 490 140 496 0 5 -84 9 -205 9 l-205 0 -6 -25
c-3 -13 -20 -103 -38 -199 -17 -96 -34 -178 -37 -180 -3 -3 -20 82 -37 190
-18 108 -34 200 -37 205 -4 5 -285 9 -660 9 l-655 0 0 -160z"/>
<path d="M3030 885 l0 -785 340 0 341 0 -3 157 -3 158 -112 3 -113 3 -2 622
-3 622 -222 3 -223 2 0 -785z"/>
<path d="M3800 885 l0 -785 365 0 365 0 0 160 0 160 -140 0 -140 0 0 170 0
170 120 0 121 0 -3 153 -3 152 -117 3 -118 3 0 139 0 140 125 0 125 0 0 160 0
160 -350 0 -350 0 0 -785z"/>
<path d="M5000 885 l0 -785 340 0 341 0 -3 157 -3 158 -112 3 -113 3 -2 622
-3 622 -222 3 -223 2 0 -785z"/>
<path d="M6870 885 l0 -785 225 0 225 0 0 330 0 330 115 0 116 0 -3 153 -3
152 -112 3 -113 3 0 139 0 140 130 0 131 0 -3 158 -3 157 -352 3 -353 2 0
-785z"/>
<path d="M7627 1663 c-4 -3 -7 -75 -7 -160 l0 -153 115 0 115 0 0 -625 0 -625
225 0 225 0 0 625 0 625 110 0 110 0 0 160 0 160 -443 0 c-244 0 -447 -3 -450
-7z"/>
</g>
</svg>
